<?xml version="1.0" encoding="UTF-8" standalone="no"?>
<svg
   version="1.0"
   width="1024.000000pt"
   height="1024.000000pt"
   viewBox="0 0 1024.000000 1024.000000"
   preserveAspectRatio="xMidYMid meet"
   id="svg2"
   sodipodi:docname="logodark.svg"
   inkscape:version="1.3.2 (091e20e, 2023-11-25, custom)"
   xmlns:inkscape="http://www.inkscape.org/namespaces/inkscape"
   xmlns:sodipodi="http://sodipodi.sourceforge.net/DTD/sodipodi-0.dtd"
   xmlns="http://www.w3.org/2000/svg"
   xmlns:svg="http://www.w3.org/2000/svg">
  <defs
     id="defs2" />
  <sodipodi:namedview
     id="namedview2"
     pagecolor="#ffffff"
     bordercolor="#000000"
     borderopacity="0.25"
     inkscape:showpageshadow="2"
     inkscape:pageopacity="0.0"
     inkscape:pagecheckerboard="0"
     inkscape:deskcolor="#d1d1d1"
     inkscape:document-units="pt"
     inkscape:zoom="0.5690918"
     inkscape:cx="682.66667"
     inkscape:cy="682.66667"
     inkscape:window-width="1920"
     inkscape:window-height="991"
     inkscape:window-x="-9"
     inkscape:window-y="-9"
     inkscape:window-maximized="1"
     inkscape:current-layer="svg2" />
  <metadata
     id="metadata1">
Created by potrace 1.16, written by Peter Selinger 2001-2019
</metadata>
  <g
     transform="translate(0.000000,1024.000000) scale(0.100000,-0.100000)"
     fill="#000000"
     stroke="none"
     id="g2"
     style="fill:#ffffff;fill-opacity:1">
    <path
       d="M7176 8648 c-41 -143 -78 -322 -83 -403 -3 -49 -9 -97 -14 -106 -5 -9 -61 -57 -126 -107 -129 -99 -236 -203 -278 -271 -57 -92 -68 -142 -74 -336 l-6 -180 -65 -5 -65 -5 -3 -100 -3 -100 81 -80 80 -80 0 -293 0 -294 -67 62 c-132 124 -266 215 -558 380 -291 164 -567 373 -711 537 -60 69 -62 74 -53 105 16 58 10 139 -25 308 -60 293 -79 371 -86 363 -4 -4 -22 -68 -39 -140 -17 -73 -45 -192 -62 -264 -31 -130 -35 -215 -14 -285 5 -16 -16 -44 -110 -142 -64 -67 -151 -149 -193 -183 -128 -103 -347 -245 -572 -372 -244 -137 -387 -243 -538 -401 -119 -125 -181 -213 -253 -361 -68 -139 -104 -266 -120 -415 -17 -168 4 -407 49 -542 l19 -58 -213 0 -214 0 0 -505 0 -505 -225 0 -224 0 -18 38 c-26 54 -90 114 -159 148 -53 26 -69 29 -159 29 -84 0 -107 -4 -147 -24 -75 -37 -134 -95 -170 -169 -30 -61 -33 -74 -33 -162 0 -85 3 -101 30 -153 107 -214 389 -268 565 -110 28 25 62 65 76 89 l26 44 1427 0 c785 0 1510 3 1611 7 l183 6 311 -315 c288 -292 315 -317 369 -337 57 -21 64 -21 882 -21 l824 0 22 -50 c26 -61 92 -123 167 -158 82 -38 212 -43 297 -11 83 31 173 121 204 204 31 80 26 207 -9 275 -52 102 -129 166 -234 196 -147 41 -319 -27 -403 -158 l-23 -38 -140 0 -140 0 0 1831 0 1832 80 83 80 84 0 105 0 105 -69 0 -69 0 -5 178 c-5 187 -15 239 -63 334 -35 69 -139 175 -279 283 l-122 95 -6 72 c-6 73 -101 476 -117 491 -4 5 -15 -15 -24 -45z m129 -848 c189 -146 215 -198 215 -426 l0 -134 -331 0 -331 0 4 148 c6 216 30 261 221 406 62 47 114 86 115 86 2 0 50 -36 107 -80z m-1890 -1012 c77 -58 291 -198 415 -270 52 -31 150 -87 216 -126 214 -125 444 -332 512 -461 57 -107 62 -149 62 -623 l0 -428 -1528 0 -1529 0 -27 87 c-46 150 -59 250 -53 413 8 220 59 375 174 539 60 86 210 239 293 301 79 59 355 233 505 319 215 124 508 342 624 464 l33 35 122 -101 c66 -57 148 -123 181 -149z m2093 -1705 l-3 -1878 -310 0 -310 0 -2 1878 -3 1877 315 0 315 0 -2 -1877z m-888 -1178 l0 -705 -98 0 -97 0 -309 309 c-209 209 -324 316 -355 332 l-46 24 -1297 3 -1298 2 0 370 0 370 1750 0 1750 0 0 -705z m-4482 -75 c103 -63 65 -210 -55 -210 -38 0 -50 5 -79 34 -29 29 -34 41 -34 79 0 94 88 146 168 97z m6320 -704 c32 -30 37 -40 37 -80 0 -117 -153 -156 -215 -54 -24 39 -25 69 -5 108 21 41 53 60 102 60 35 0 50 -6 81 -34z"
       id="path1"
       style="fill:#ffffff;fill-opacity:1" />
    <path
       d="M2480 3214 c-156 -56 -259 -227 -232 -389 14 -87 45 -146 109 -206 81 -76 128 -94 248 -94 89 0 106 3 155 27 78 38 126 82 162 144 l30 54 1139 0 1140 0 42 -21 c26 -13 142 -121 302 -281 143 -142 274 -267 290 -278 76 -48 109 -50 760 -50 l610 0 19 -40 c26 -54 104 -126 169 -155 177 -81 391 1 474 181 47 104 39 238 -22 334 -35 55 -110 117 -171 140 -86 32 -202 28 -279 -8 -65 -31 -146 -106 -165 -153 l-12 -29 -622 0 -621 0 -285 286 c-157 157 -303 295 -325 307 l-40 22 -1207 3 -1206 2 -25 43 c-33 56 -100 117 -162 147 -64 32 -205 39 -275 14z m178 -244 c103 -63 65 -210 -55 -210 -38 0 -50 5 -79 34 -29 29 -34 41 -34 79 0 94 88 146 168 97z m4946 -614 c70 -29 100 -123 55 -179 -28 -36 -88 -54 -127 -38 -53 22 -77 57 -77 111 0 54 20 84 70 106 38 17 39 17 79 0z"
       id="path2"
       style="fill:#ffffff;fill-opacity:1" />
  </g>
</svg>
